<?xml version="1.0" standalone="no"?>
<!DOCTYPE svg PUBLIC "-//W3C//DTD SVG 20010904//EN"
 "http://www.w3.org/TR/2001/REC-SVG-20010904/DTD/svg10.dtd">
<svg version="1.0" xmlns="http://www.w3.org/2000/svg"
 width="214.000000pt" height="214.000000pt" viewBox="0 0 214.000000 214.000000"
 preserveAspectRatio="xMidYMid meet">
<metadata>
Created by potrace 1.11, written by Peter Selinger 2001-2013
</metadata>
<g transform="translate(0.000000,214.000000) scale(0.100000,-0.100000)"
fill="#000000" stroke="none">
<path d="M900 2115 c8 -22 7 -23 -20 -15 -16 5 -34 11 -40 15 -13 8 -13 -1 3
-25 10 -17 9 -22 -3 -30 -8 -6 -25 -8 -37 -5 -32 7 -79 -5 -62 -16 9 -5 -1
-10 -29 -15 -26 -4 -47 -14 -52 -25 -6 -9 -27 -23 -47 -30 -21 -6 -42 -17 -49
-23 -6 -6 -30 -27 -53 -46 -24 -19 -52 -44 -63 -55 -32 -33 -91 -136 -94 -166
-2 -16 -31 -85 -65 -153 -56 -113 -69 -165 -35 -137 20 17 25 3 14 -37 -21
-79 -21 -110 0 -121 11 -6 25 -23 31 -38 7 -16 22 -46 36 -68 29 -49 30 -55 7
-55 -19 0 -52 -47 -52 -76 0 -9 3 -15 6 -11 4 3 16 -13 28 -36 17 -35 30 -46
73 -62 l53 -20 0 -88 c0 -48 7 -120 16 -160 17 -80 53 -189 64 -197 4 -3 10
-17 13 -31 4 -15 22 -44 42 -65 19 -22 38 -55 41 -74 4 -19 9 -29 11 -22 5 14
33 17 33 3 0 -6 8 -8 18 -6 12 2 23 -7 32 -28 l15 -32 3 30 c5 41 19 53 36 30
13 -18 15 -18 39 -2 24 15 26 15 39 -5 l15 -22 19 22 c20 24 43 29 45 10 4
-31 -3 -104 -10 -111 -4 -4 -21 -2 -37 4 -16 7 -37 11 -47 10 -10 -1 -27 5
-37 14 -17 15 -20 15 -42 1 -13 -8 -56 -22 -97 -31 -73 -15 -162 -47 -256 -92
l-50 -24 80 3 c68 3 91 9 157 41 90 43 102 45 93 15 -4 -13 -9 -31 -11 -40 -4
-15 1 -18 28 -18 27 1 39 9 68 45 33 43 47 49 95 46 51 -4 63 -11 70 -43 l8
-33 7 30 c4 17 8 55 9 85 2 73 13 91 41 65 13 -12 18 -25 14 -38 -8 -24 -7
-112 1 -137 4 -11 15 -20 26 -20 20 0 26 15 9 25 -14 8 -13 52 2 61 15 10 38
-24 38 -58 0 -22 5 -28 21 -28 19 0 21 4 15 31 -6 31 -5 31 26 25 17 -3 56
-17 86 -31 30 -14 66 -25 80 -25 l26 0 -22 15 c-31 22 -180 81 -225 89 -42 8
-45 11 -50 79 -4 45 1 56 17 39 4 -4 29 -7 54 -7 36 0 46 -3 44 -15 -2 -11 1
-11 11 2 8 10 21 18 30 18 9 0 23 10 31 22 14 20 17 21 34 5 14 -13 21 -14 30
-5 7 7 12 18 12 25 0 7 6 13 14 13 8 0 23 15 35 33 11 17 21 25 21 17 1 -8 7
0 15 18 8 17 18 32 24 32 5 0 13 15 16 32 4 18 15 42 25 53 10 11 23 37 29 58
6 20 15 52 21 70 5 18 13 55 16 82 4 28 10 52 13 55 22 18 35 65 56 201 5 33
11 39 69 68 35 17 68 31 74 31 30 0 32 101 2 132 -12 13 -16 24 -10 26 5 2 10
17 10 33 0 18 5 29 14 29 21 0 30 56 16 105 -9 31 -9 52 -2 73 6 16 8 73 6
127 -5 101 -28 169 -77 223 -18 19 -18 22 -4 22 27 0 20 24 -23 73 -48 54
-157 112 -192 102 -18 -5 -20 -4 -8 4 13 9 13 11 -2 11 -9 0 -23 9 -30 19 -21
29 -129 54 -201 46 -36 -4 -61 -13 -64 -21 -3 -8 -10 -14 -15 -14 -14 0 -139
60 -158 75 -8 7 -36 19 -62 28 l-47 15 9 -23z m-80 -94 c0 -5 -7 -14 -15 -21
-16 -14 -18 -10 -9 14 6 17 24 22 24 7z m70 -21 c0 -5 -4 -10 -10 -10 -5 0
-10 5 -10 10 0 6 5 10 10 10 6 0 10 -4 10 -10z m215 -10 c3 -5 14 -10 25 -10
16 0 36 -27 26 -37 -6 -6 -76 40 -76 50 0 10 18 9 25 -3z m400 -52 c18 -8 22
-14 13 -20 -20 -12 -26 -10 -38 12 -12 23 -10 24 25 8z m-575 -23 c0 -8 -9
-15 -19 -15 -29 0 -35 18 -9 23 13 2 24 5 26 6 1 0 2 -6 2 -14z m310 5 c0 -5
-6 -10 -14 -10 -8 0 -18 5 -21 10 -3 6 3 10 14 10 12 0 21 -4 21 -10z m378
-38 c12 -8 21 -16 19 -18 -4 -4 -87 36 -87 43 0 7 43 -8 68 -25z m-363 -26
c51 -35 210 -184 203 -191 -2 -2 -26 11 -53 30 -28 19 -53 34 -56 35 -13 0
-169 160 -157 160 7 0 36 -15 63 -34z m-385 15 c-8 -5 -26 -12 -40 -15 -24 -7
-24 -6 -6 8 11 9 29 16 40 16 17 -1 18 -2 6 -9z m680 -53 c0 -14 -13 -9 -37
14 -33 31 -28 43 7 16 17 -12 30 -25 30 -30z m-860 -38 c-13 -11 -26 -18 -28
-15 -6 6 28 34 42 35 5 0 -1 -9 -14 -20z m230 -60 c-35 -30 -57 -39 -44 -19 6
11 65 49 74 49 3 0 -11 -14 -30 -30z m401 -30 c30 -27 49 -50 44 -50 -11 0
-105 85 -105 95 0 10 7 5 61 -45z m-241 11 c-10 -20 -30 -29 -30 -14 0 8 34
41 38 38 2 -2 -1 -13 -8 -24z m598 7 c7 -7 12 -19 12 -27 0 -11 -4 -10 -16 5
-8 10 -12 13 -9 6 5 -10 2 -13 -11 -10 -26 5 -31 38 -7 38 11 0 24 -5 31 -12z
m-183 -38 c10 -11 16 -20 13 -20 -3 0 -13 9 -23 20 -10 11 -16 20 -13 20 3 0
13 -9 23 -20z m-502 -5 c-3 -9 -8 -14 -10 -11 -3 3 -2 9 2 15 9 16 15 13 8 -4z
m157 6 c0 -6 -4 -13 -10 -16 -5 -3 -10 1 -10 9 0 9 5 16 10 16 6 0 10 -4 10
-9z m-113 -26 c-4 -8 -11 -15 -17 -15 -6 0 -6 7 2 20 14 22 24 19 15 -5z
m-596 -58 c-8 -8 -11 -5 -11 9 0 27 14 41 18 19 2 -9 -1 -22 -7 -28z m359 13
c0 -5 -5 -10 -11 -10 -5 0 -7 5 -4 10 3 6 8 10 11 10 2 0 4 -4 4 -10z m194 -6
c3 -8 2 -12 -4 -9 -6 3 -10 2 -10 -4 0 -6 -6 -8 -14 -5 -9 3 -20 -3 -28 -15
-7 -12 -16 -21 -21 -21 -16 0 29 49 46 50 9 0 17 5 17 10 0 15 7 12 14 -6z
m-583 -47 c-8 -8 -11 -7 -11 4 0 20 13 34 18 19 3 -7 -1 -17 -7 -23z m1172 1
c43 -30 68 -59 61 -70 -3 -5 3 -12 15 -15 21 -5 37 -36 26 -53 -6 -10 -55 40
-55 55 0 12 -58 74 -63 68 -3 -2 -10 5 -17 16 -14 27 -6 26 33 -1z m-305 -28
c17 -11 32 -26 32 -34 0 -7 12 -22 27 -31 14 -10 38 -30 53 -45 26 -26 124
-80 147 -80 12 0 48 -38 42 -44 -2 -3 -26 -14 -52 -25 -26 -11 -57 -29 -69
-40 -28 -26 -34 -21 -40 34 -9 79 -59 109 -183 109 -81 0 -122 -20 -127 -61
-3 -27 -8 -29 -77 -35 -37 -3 -35 -6 -55 82 -5 25 -6 25 -108 24 -59 0 -120
-6 -143 -14 -22 -8 -44 -14 -50 -15 -6 0 -10 -28 -10 -63 0 -34 -2 -62 -5 -62
-3 0 -32 25 -65 54 -47 43 -57 57 -48 67 7 7 20 13 30 14 10 1 32 8 48 17 17
9 49 21 73 27 23 7 42 16 42 22 0 6 8 8 18 5 11 -4 36 1 56 9 21 9 46 13 57
10 12 -4 31 0 45 10 15 9 35 14 48 11 13 -3 35 3 53 14 17 10 40 20 50 22 10
2 21 7 25 13 4 5 34 9 68 9 33 0 60 3 60 8 0 14 23 9 58 -12z m-892 -16 c-4
-9 -9 -15 -11 -12 -3 3 -3 13 1 22 4 9 9 15 11 12 3 -3 3 -13 -1 -22z m1129
-6 c20 -21 24 -27 10 -20 -24 12 -62 52 -49 52 5 0 23 -15 39 -32z m-880 2
c-3 -5 -13 -10 -21 -10 -8 0 -12 5 -9 10 3 6 13 10 21 10 8 0 12 -4 9 -10z
m845 -31 c0 -5 -11 -2 -25 7 -14 9 -25 20 -25 25 0 5 11 2 25 -7 14 -9 25 -20
25 -25z m-894 -16 c-38 -32 -52 -29 -26 7 14 19 26 27 37 23 14 -5 12 -10 -11
-30z m-226 -30 l-21 -27 3 26 c2 14 10 34 18 43 26 31 25 -10 0 -42z m289 8
c-14 -5 -36 -14 -48 -21 -17 -9 -21 -9 -16 0 9 14 44 29 70 29 15 -1 14 -2 -6
-8z m885 -36 c3 -8 1 -15 -4 -15 -6 0 -10 7 -10 15 0 8 2 15 4 15 2 0 6 -7 10
-15z m-1120 -10 c-7 -16 -24 -21 -24 -6 0 8 7 13 27 20 1 1 0 -6 -3 -14z m-23
-57 c-4 -13 -6 -28 -4 -34 2 -6 -3 -17 -11 -23 -13 -11 -15 -9 -13 11 2 23 24
68 32 68 3 0 1 -10 -4 -22z m1233 0 c9 -12 13 -24 11 -27 -5 -5 -45 34 -45 44
0 13 20 3 34 -17z m-685 -4 c14 -4 12 -36 -7 -124 -13 -57 -67 -110 -114 -110
-25 0 -42 10 -80 50 -54 56 -62 94 -28 125 11 10 20 24 20 32 0 24 61 41 130
36 36 -3 71 -7 79 -9z m412 -35 c31 -22 34 -35 19 -90 -15 -54 -39 -71 -89
-63 -63 10 -86 33 -83 82 2 23 -2 44 -9 48 -9 5 -3 15 17 31 24 20 36 23 72
19 24 -3 57 -15 73 -27z m-713 -106 c14 -3 31 -22 44 -47 11 -22 36 -56 54
-73 31 -30 39 -33 97 -32 34 0 70 3 79 7 26 11 70 83 76 124 5 38 14 44 46 32
11 -4 16 -19 16 -43 0 -20 7 -54 15 -76 8 -22 14 -50 15 -63 0 -22 -4 -23 -52
-22 -80 3 -86 1 -63 -12 22 -14 29 -15 101 -23 40 -5 55 -2 68 10 21 22 20 31
-8 79 -19 32 -56 134 -56 153 0 2 16 3 35 3 26 0 35 -4 35 -16 0 -29 87 -122
123 -130 62 -15 90 0 125 65 16 29 27 36 85 51 77 20 80 17 47 -54 -10 -24
-24 -65 -30 -92 -20 -99 -65 -234 -77 -234 -7 0 -13 -7 -13 -16 0 -14 -3 -14
-15 -4 -8 7 -15 20 -15 29 0 22 -62 70 -68 52 -3 -8 -14 -5 -38 10 -28 17 -37
19 -49 9 -8 -7 -15 -10 -15 -7 0 3 -12 -1 -27 -8 -23 -12 -30 -12 -43 -1 -25
22 -64 27 -87 11 -19 -13 -22 -13 -27 1 -4 9 -11 12 -18 7 -14 -8 -35 -14 -58
-15 -8 0 -21 -5 -28 -11 -8 -6 -39 -12 -70 -14 -32 -2 -58 -7 -60 -12 -4 -13
-45 0 -59 18 -12 14 -15 13 -34 -12 -15 -19 -27 -26 -40 -22 -12 4 -23 -2 -35
-20 -20 -31 -31 -32 -40 -3 -4 13 -15 34 -25 48 -13 18 -21 59 -29 140 -13
139 -19 179 -31 186 -5 3 -9 0 -9 -6 0 -6 -5 -8 -10 -5 -10 6 -4 72 11 113 9
22 10 22 71 -23 35 -25 73 -48 86 -52z m-246 38 c2 -22 0 -37 -4 -35 -8 5 -11
74 -4 74 2 0 6 -18 8 -39z m46 -56 c1 -14 -3 -11 -12 10 -7 17 -10 39 -7 50 4
17 6 15 12 -10 4 -16 7 -39 7 -50z m9 53 c-3 -8 -6 -5 -6 6 -1 11 2 17 5 13 3
-3 4 -12 1 -19z m1213 -146 c0 -13 -39 -46 -46 -39 -9 9 16 47 31 47 8 0 15
-4 15 -8z m-1197 -38 c22 -8 25 -94 3 -94 -22 0 -37 26 -43 71 -5 33 -3 40 8
35 8 -3 22 -9 32 -12z m24 -246 c-3 -7 -5 -2 -5 12 0 14 2 19 5 13 2 -7 2 -19
0 -25z m630 -25 c15 -10 37 -16 51 -14 18 2 23 -1 20 -15 -2 -12 -30 -29 -83
-50 -74 -30 -82 -31 -122 -19 -23 7 -53 22 -67 33 -27 21 -67 24 -73 6 -2 -7
9 -21 24 -31 60 -42 199 -56 267 -28 45 19 101 76 85 86 -7 4 -8 9 -1 13 29
18 21 -75 -10 -108 -10 -11 -18 -25 -18 -31 0 -6 -14 -21 -30 -34 -26 -19 -31
-20 -36 -6 -5 12 -15 14 -43 10 -20 -3 -37 -10 -39 -15 -2 -5 -10 -6 -18 -3
-8 3 -21 0 -29 -7 -12 -10 -15 -9 -15 3 0 23 -39 42 -54 27 -8 -8 -6 -9 7 -4
17 6 18 5 6 -14 -10 -16 -10 -23 -1 -35 10 -12 9 -16 -3 -21 -10 -4 -15 1 -15
15 0 40 -18 59 -50 52 -24 -4 -30 -2 -30 12 0 14 -3 15 -14 6 -12 -10 -14 0
-15 67 l-1 80 31 4 c16 3 32 1 35 -3 2 -4 16 -2 30 6 16 8 47 12 78 10 32 -3
60 1 76 10 31 18 26 18 57 -2z m-622 -23 c3 -5 1 -10 -4 -10 -6 0 -11 5 -11
10 0 6 2 10 4 10 3 0 8 -4 11 -10z m295 -25 c0 -8 -4 -15 -10 -15 -5 0 -7 7
-4 15 4 8 8 15 10 15 2 0 4 -7 4 -15z m-50 -50 c0 -5 -5 -3 -10 5 -5 8 -10 20
-10 25 0 6 5 3 10 -5 5 -8 10 -19 10 -25z m35 -11 c-8 -20 -15 -48 -16 -63
l-1 -26 -8 27 c-5 16 -7 34 -5 40 10 42 19 58 31 58 12 0 12 -6 -1 -36z m345
-125 c0 -5 -10 -7 -22 -5 -13 3 -30 5 -38 6 -8 1 -4 5 10 9 28 8 50 4 50 -10z
m-73 -31 c-3 -8 -6 -5 -6 6 -1 11 2 17 5 13 3 -3 4 -12 1 -19z m-82 -18 c3 -5
1 -10 -4 -10 -6 0 -11 5 -11 10 0 6 2 10 4 10 3 0 8 -4 11 -10z m-119 -76 c-3
-9 -6 -27 -6 -40 0 -13 -3 -24 -8 -24 -4 0 -6 18 -4 40 2 22 9 40 14 40 6 0 7
-7 4 -16z m81 -80 c-3 -3 -12 -4 -19 -1 -8 3 -5 6 6 6 11 1 17 -2 13 -5z"/>
<path d="M768 1248 c-3 -7 2 -25 10 -41 11 -23 19 -28 45 -25 16 2 35 11 41
21 9 15 6 21 -14 37 -28 22 -76 26 -82 8z"/>
<path d="M1224 1256 c-3 -8 -4 -25 -2 -38 3 -20 9 -23 51 -26 56 -4 60 7 18
49 -32 31 -58 37 -67 15z"/>
<path d="M788 55 c-3 -3 -3 -17 0 -30 4 -21 10 -25 42 -25 41 0 59 22 39 46
-11 13 -70 20 -81 9z"/>
</g>
</svg>
